<svg width="91" height="36" viewBox="0 0 91 36" fill="none" xmlns="http://www.w3.org/2000/svg">
<path d="M0.7095 1.4C1.3495 1.304 2.0855 1.24 2.9175 1.208C3.7815 1.144 4.6615 1.096 5.5575 1.064C6.4855 1.032 7.3815 1.016 8.2455 1.016C9.1415 0.983998 9.9575 0.967998 10.6935 0.967998C13.6375 0.967998 16.1815 1.4 18.3255 2.264C20.5015 3.096 22.2935 4.264 23.7015 5.768C25.1415 7.272 26.2135 9.064 26.9175 11.144C27.6215 13.224 27.9735 15.496 27.9735 17.96C27.9735 20.2 27.6375 22.376 26.9655 24.488C26.3255 26.568 25.2855 28.424 23.8455 30.056C22.4055 31.688 20.5495 33 18.2775 33.992C16.0375 34.984 13.3175 35.48 10.1175 35.48C9.5735 35.48 8.8375 35.464 7.9095 35.432C7.0135 35.4 6.0855 35.368 5.1255 35.336C4.1655 35.304 3.2695 35.256 2.4375 35.192C1.6375 35.16 1.0615 35.112 0.7095 35.048V1.4ZM10.8375 5.192C10.3895 5.192 9.9095 5.192 9.3975 5.192C8.8855 5.192 8.3735 5.208 7.8615 5.24C7.3495 5.272 6.8855 5.304 6.4695 5.336C6.0535 5.368 5.7335 5.4 5.5095 5.432V31.064C5.6695 31.096 5.9735 31.128 6.4215 31.16C6.9015 31.16 7.3975 31.176 7.9095 31.208C8.4215 31.208 8.9015 31.224 9.3495 31.256C9.7975 31.256 10.1175 31.256 10.3095 31.256C12.7095 31.256 14.7095 30.888 16.3095 30.152C17.9415 29.384 19.2375 28.376 20.1975 27.128C21.1895 25.88 21.8775 24.472 22.2615 22.904C22.6775 21.304 22.8855 19.656 22.8855 17.96C22.8855 16.52 22.6935 15.048 22.3095 13.544C21.9255 12.04 21.2695 10.68 20.3415 9.464C19.4135 8.216 18.1815 7.192 16.6455 6.392C15.1095 5.592 13.1735 5.192 10.8375 5.192ZM34.75 28.952C34.75 28.0987 34.91 27.2987 35.23 26.552C35.55 25.784 35.9767 25.0693 36.51 24.408C37.0647 23.7253 37.694 23.1067 38.398 22.552C39.1233 21.9973 39.8807 21.5067 40.67 21.08C40.1153 20.3333 39.6353 19.5867 39.23 18.84C38.846 18.072 38.654 17.2507 38.654 16.376C38.654 15.864 38.75 15.3627 38.942 14.872C39.134 14.36 39.4327 13.912 39.838 13.528C40.2647 13.1227 40.8087 12.8027 41.47 12.568C42.1313 12.312 42.9313 12.184 43.87 12.184C44.8513 12.184 45.6727 12.3013 46.334 12.536C47.0167 12.7707 47.5607 13.08 47.966 13.464C48.3713 13.8267 48.6593 14.2427 48.83 14.712C49.0007 15.1813 49.086 15.6507 49.086 16.12C49.086 16.9947 48.7127 17.912 47.966 18.872C47.2407 19.832 46.0567 20.728 44.414 21.56C45.2247 22.7973 46.174 24.0347 47.262 25.272C48.35 26.5093 49.4593 27.6613 50.59 28.728C50.846 28.472 51.102 28.152 51.358 27.768C51.6353 27.384 51.8913 26.968 52.126 26.52C52.3607 26.072 52.5847 25.624 52.798 25.176C53.0113 24.7067 53.1927 24.2587 53.342 23.832L55.646 25.016C55.518 25.3787 55.326 25.8053 55.07 26.296C54.814 26.7867 54.526 27.288 54.206 27.8C53.9073 28.2907 53.598 28.7707 53.278 29.24C52.958 29.688 52.6593 30.072 52.382 30.392C52.8513 30.7973 53.2673 31.1493 53.63 31.448C54.014 31.7253 54.366 31.9707 54.686 32.184C55.0273 32.3973 55.3473 32.5893 55.646 32.76C55.9447 32.9307 56.254 33.0907 56.574 33.24L54.782 35.416C54.1847 35.1173 53.5233 34.7227 52.798 34.232C52.094 33.7413 51.3687 33.1547 50.622 32.472C50.1953 32.856 49.726 33.2293 49.214 33.592C48.7233 33.9333 48.158 34.2427 47.518 34.52C46.8993 34.776 46.206 34.9893 45.438 35.16C44.67 35.3307 43.8273 35.416 42.91 35.416C41.8007 35.416 40.7553 35.2773 39.774 35C38.7927 34.7013 37.9287 34.2747 37.182 33.72C36.4353 33.1653 35.838 32.4933 35.39 31.704C34.9633 30.8933 34.75 29.976 34.75 28.952ZM48.766 30.648C48.126 30.0507 47.4753 29.4 46.814 28.696C46.174 27.992 45.566 27.2987 44.99 26.616C44.414 25.912 43.87 25.24 43.358 24.6C42.8673 23.96 42.4407 23.3947 42.078 22.904C40.8193 23.7573 39.7847 24.6533 38.974 25.592C38.1847 26.5093 37.79 27.5867 37.79 28.824C37.79 29.4427 37.9393 30.008 38.238 30.52C38.5367 31.0107 38.9313 31.4373 39.422 31.8C39.934 32.1413 40.5207 32.408 41.182 32.6C41.8647 32.7707 42.5793 32.856 43.326 32.856C43.8807 32.856 44.4247 32.792 44.958 32.664C45.5127 32.536 46.0247 32.376 46.494 32.184C46.9847 31.9707 47.422 31.736 47.806 31.48C48.19 31.2027 48.51 30.9253 48.766 30.648ZM41.694 16.44C41.694 17.0373 41.822 17.6347 42.078 18.232C42.3553 18.808 42.718 19.4053 43.166 20.024C44.3607 19.3413 45.1927 18.7227 45.662 18.168C46.1527 17.6133 46.398 17.1227 46.398 16.696C46.398 16.0133 46.2167 15.48 45.854 15.096C45.5127 14.6907 44.894 14.488 43.998 14.488C43.1873 14.488 42.6007 14.6693 42.238 15.032C41.8753 15.3733 41.694 15.8427 41.694 16.44ZM63.522 1.4C64.162 1.304 64.898 1.24 65.73 1.208C66.594 1.144 67.474 1.096 68.37 1.064C69.298 1.032 70.194 1.016 71.058 1.016C71.954 0.983998 72.77 0.967998 73.506 0.967998C76.45 0.967998 78.994 1.4 81.138 2.264C83.314 3.096 85.106 4.264 86.514 5.768C87.954 7.272 89.026 9.064 89.73 11.144C90.434 13.224 90.786 15.496 90.786 17.96C90.786 20.2 90.45 22.376 89.778 24.488C89.138 26.568 88.098 28.424 86.658 30.056C85.218 31.688 83.362 33 81.09 33.992C78.85 34.984 76.13 35.48 72.93 35.48C72.386 35.48 71.65 35.464 70.722 35.432C69.826 35.4 68.898 35.368 67.938 35.336C66.978 35.304 66.082 35.256 65.25 35.192C64.45 35.16 63.874 35.112 63.522 35.048V1.4ZM73.65 5.192C73.202 5.192 72.722 5.192 72.21 5.192C71.698 5.192 71.186 5.208 70.674 5.24C70.162 5.272 69.698 5.304 69.282 5.336C68.866 5.368 68.546 5.4 68.322 5.432V31.064C68.482 31.096 68.786 31.128 69.234 31.16C69.714 31.16 70.21 31.176 70.722 31.208C71.234 31.208 71.714 31.224 72.162 31.256C72.61 31.256 72.93 31.256 73.122 31.256C75.522 31.256 77.522 30.888 79.122 30.152C80.754 29.384 82.05 28.376 83.01 27.128C84.002 25.88 84.69 24.472 85.074 22.904C85.49 21.304 85.698 19.656 85.698 17.96C85.698 16.52 85.506 15.048 85.122 13.544C84.738 12.04 84.082 10.68 83.154 9.464C82.226 8.216 80.994 7.192 79.458 6.392C77.922 5.592 75.986 5.192 73.65 5.192Z" fill="white"/>
</svg>
