<svg width="209" height="19" viewBox="0 0 209 19" fill="none" xmlns="http://www.w3.org/2000/svg">
<path d="M0.28 0.999999H5.98C7.46 0.999999 8.76667 1.3 9.9 1.9C11.0333 2.48667 11.9133 3.31333 12.54 4.38C13.1667 5.43333 13.48 6.64 13.48 8C13.48 9.36 13.1667 10.5733 12.54 11.64C11.9133 12.6933 11.0333 13.52 9.9 14.12C8.76667 14.7067 7.46 15 5.98 15H0.28V0.999999ZM5.9 13.72C7.12667 13.72 8.2 13.48 9.12 13C10.04 12.5067 10.7533 11.8333 11.26 10.98C11.7667 10.1133 12.02 9.12 12.02 8C12.02 6.88 11.7667 5.89333 11.26 5.04C10.7533 4.17333 10.04 3.5 9.12 3.02C8.2 2.52667 7.12667 2.28 5.9 2.28H1.76V13.72H5.9ZM25.1834 9.82H15.9834C15.9834 10.7533 16.1901 11.5933 16.6034 12.34C17.0168 13.0733 17.5834 13.6467 18.3034 14.06C19.0368 14.4733 19.8568 14.68 20.7634 14.68C21.4701 14.68 22.1301 14.5467 22.7434 14.28C23.3701 14 23.8834 13.6 24.2834 13.08L24.5634 13.36C24.1101 13.9067 23.5501 14.3267 22.8834 14.62C22.2168 14.9133 21.5101 15.06 20.7634 15.06C19.7768 15.06 18.8901 14.84 18.1034 14.4C17.3301 13.9467 16.7168 13.32 16.2634 12.52C15.8234 11.72 15.6034 10.82 15.6034 9.82C15.6034 8.82 15.8101 7.92667 16.2234 7.14C16.6368 6.34 17.2034 5.72 17.9234 5.28C18.6568 4.82667 19.4768 4.6 20.3834 4.6C21.2768 4.6 22.0901 4.82 22.8234 5.26C23.5568 5.7 24.1301 6.30667 24.5434 7.08C24.9701 7.85333 25.1834 8.73333 25.1834 9.72V9.82ZM20.3834 4.98C19.5834 4.98 18.8568 5.17333 18.2034 5.56C17.5501 5.94667 17.0234 6.48 16.6234 7.16C16.2368 7.84 16.0234 8.6 15.9834 9.44H24.8034C24.7634 8.6 24.5434 7.84 24.1434 7.16C23.7434 6.48 23.2168 5.94667 22.5634 5.56C21.9101 5.17333 21.1834 4.98 20.3834 4.98ZM36.1064 4.66L31.3464 15H30.9464L26.1864 4.66H26.6464L31.1464 14.54L35.6464 4.66H36.1064ZM46.5897 9.82H37.3897C37.3897 10.7533 37.5964 11.5933 38.0097 12.34C38.423 13.0733 38.9897 13.6467 39.7097 14.06C40.443 14.4733 41.263 14.68 42.1697 14.68C42.8764 14.68 43.5364 14.5467 44.1497 14.28C44.7764 14 45.2897 13.6 45.6897 13.08L45.9697 13.36C45.5164 13.9067 44.9564 14.3267 44.2897 14.62C43.623 14.9133 42.9164 15.06 42.1697 15.06C41.183 15.06 40.2964 14.84 39.5097 14.4C38.7364 13.9467 38.123 13.32 37.6697 12.52C37.2297 11.72 37.0097 10.82 37.0097 9.82C37.0097 8.82 37.2164 7.92667 37.6297 7.14C38.043 6.34 38.6097 5.72 39.3297 5.28C40.063 4.82667 40.883 4.6 41.7897 4.6C42.683 4.6 43.4964 4.82 44.2297 5.26C44.963 5.7 45.5364 6.30667 45.9497 7.08C46.3764 7.85333 46.5897 8.73333 46.5897 9.72V9.82ZM41.7897 4.98C40.9897 4.98 40.263 5.17333 39.6097 5.56C38.9564 5.94667 38.4297 6.48 38.0297 7.16C37.643 7.84 37.4297 8.6 37.3897 9.44H46.2097C46.1697 8.6 45.9497 7.84 45.5497 7.16C45.1497 6.48 44.623 5.94667 43.9697 5.56C43.3164 5.17333 42.5897 4.98 41.7897 4.98ZM49.968 0.159999H50.368V15H49.968V0.159999ZM58.768 15.06C57.8213 15.06 56.9613 14.84 56.188 14.4C55.428 13.9467 54.828 13.32 54.388 12.52C53.9613 11.72 53.748 10.82 53.748 9.82C53.748 8.82 53.9613 7.92667 54.388 7.14C54.828 6.34 55.428 5.72 56.188 5.28C56.9613 4.82667 57.8213 4.6 58.768 4.6C59.7146 4.6 60.568 4.82667 61.328 5.28C62.1013 5.72 62.7013 6.34 63.128 7.14C63.568 7.92667 63.788 8.82 63.788 9.82C63.788 10.82 63.568 11.72 63.128 12.52C62.7013 13.32 62.1013 13.9467 61.328 14.4C60.568 14.84 59.7146 15.06 58.768 15.06ZM58.768 14.68C59.6346 14.68 60.4213 14.4733 61.128 14.06C61.8346 13.6467 62.388 13.0733 62.788 12.34C63.188 11.5933 63.388 10.7533 63.388 9.82C63.388 8.88667 63.188 8.05333 62.788 7.32C62.388 6.57333 61.8346 6 61.128 5.6C60.4213 5.18667 59.6346 4.98 58.768 4.98C57.9013 4.98 57.1146 5.18667 56.408 5.6C55.7013 6 55.148 6.57333 54.748 7.32C54.348 8.05333 54.148 8.88667 54.148 9.82C54.148 10.7533 54.348 11.5933 54.748 12.34C55.148 13.0733 55.7013 13.6467 56.408 14.06C57.1146 14.4733 57.9013 14.68 58.768 14.68ZM72.195 4.6C73.1283 4.6 73.975 4.82667 74.735 5.28C75.5083 5.72 76.115 6.34 76.555 7.14C76.995 7.94 77.215 8.84 77.215 9.84C77.215 10.84 76.995 11.74 76.555 12.54C76.115 13.3267 75.5083 13.9467 74.735 14.4C73.975 14.84 73.1283 15.06 72.195 15.06C71.1283 15.06 70.175 14.7733 69.335 14.2C68.5083 13.6133 67.9217 12.8333 67.575 11.86V18.88H67.175V4.66H67.575V7.82C67.9217 6.83333 68.5083 6.05333 69.335 5.48C70.1617 4.89333 71.115 4.6 72.195 4.6ZM72.195 14.68C73.0617 14.68 73.8483 14.48 74.555 14.08C75.2617 13.6667 75.815 13.0933 76.215 12.36C76.615 11.6133 76.815 10.7733 76.815 9.84C76.815 8.90667 76.615 8.07333 76.215 7.34C75.815 6.59333 75.2617 6.01333 74.555 5.6C73.8483 5.18667 73.0617 4.98 72.195 4.98C71.3283 4.98 70.5417 5.18667 69.835 5.6C69.1283 6.01333 68.575 6.59333 68.175 7.34C67.775 8.07333 67.575 8.90667 67.575 9.84C67.575 10.7733 67.775 11.6133 68.175 12.36C68.575 13.0933 69.1283 13.6667 69.835 14.08C70.5417 14.48 71.3283 14.68 72.195 14.68ZM88.953 9.82H79.753C79.753 10.7533 79.9596 11.5933 80.373 12.34C80.7863 13.0733 81.353 13.6467 82.073 14.06C82.8063 14.4733 83.6263 14.68 84.533 14.68C85.2396 14.68 85.8996 14.5467 86.513 14.28C87.1396 14 87.653 13.6 88.053 13.08L88.333 13.36C87.8796 13.9067 87.3196 14.3267 86.653 14.62C85.9863 14.9133 85.2796 15.06 84.533 15.06C83.5463 15.06 82.6596 14.84 81.873 14.4C81.0996 13.9467 80.4863 13.32 80.033 12.52C79.593 11.72 79.373 10.82 79.373 9.82C79.373 8.82 79.5796 7.92667 79.993 7.14C80.4063 6.34 80.973 5.72 81.693 5.28C82.4263 4.82667 83.2463 4.6 84.153 4.6C85.0463 4.6 85.8596 4.82 86.593 5.26C87.3263 5.7 87.8996 6.30667 88.313 7.08C88.7396 7.85333 88.953 8.73333 88.953 9.72V9.82ZM84.153 4.98C83.353 4.98 82.6263 5.17333 81.973 5.56C81.3196 5.94667 80.793 6.48 80.393 7.16C80.0063 7.84 79.793 8.6 79.753 9.44H88.573C88.533 8.6 88.313 7.84 87.913 7.16C87.513 6.48 86.9863 5.94667 86.333 5.56C85.6796 5.17333 84.953 4.98 84.153 4.98ZM92.7313 7.34C93.0246 6.46 93.5179 5.78667 94.2113 5.32C94.9046 4.84 95.7646 4.6 96.7913 4.6V5H96.6713C95.4313 5 94.4646 5.4 93.7713 6.2C93.0779 6.98667 92.7313 8.06667 92.7313 9.44V15H92.3313V4.66H92.7313V7.34ZM114.928 15.2L112.768 12.84C111.701 14.32 110.161 15.06 108.148 15.06C107.308 15.06 106.554 14.92 105.888 14.64C105.234 14.3467 104.721 13.9467 104.348 13.44C103.988 12.92 103.808 12.32 103.808 11.64C103.808 10.8533 104.088 10.12 104.648 9.44C105.208 8.76 106.188 8 107.588 7.16L107.428 7C106.734 6.25333 106.268 5.64667 106.028 5.18C105.788 4.7 105.668 4.18667 105.668 3.64C105.668 2.82667 105.941 2.17333 106.488 1.68C107.034 1.18667 107.768 0.94 108.688 0.94C109.554 0.94 110.241 1.16667 110.748 1.62C111.254 2.06 111.508 2.66667 111.508 3.44C111.508 3.89333 111.401 4.31333 111.188 4.7C110.988 5.07333 110.648 5.46 110.168 5.86C109.701 6.26 109.034 6.72 108.168 7.24L112.748 12.24C113.241 11.4533 113.608 10.44 113.848 9.2L114.188 9.28C113.934 10.5733 113.541 11.6467 113.008 12.5L115.228 14.94L114.928 15.2ZM106.068 3.64C106.068 4.13333 106.181 4.6 106.408 5.04C106.648 5.48 107.108 6.07333 107.788 6.82L107.928 6.96C108.768 6.45333 109.408 6.02 109.848 5.66C110.301 5.3 110.628 4.94667 110.828 4.6C111.028 4.25333 111.128 3.86667 111.128 3.44C111.128 2.78667 110.914 2.27333 110.488 1.9C110.061 1.51333 109.461 1.32 108.688 1.32C107.874 1.32 107.234 1.53333 106.768 1.96C106.301 2.37333 106.068 2.93333 106.068 3.64ZM108.148 14.72C110.054 14.72 111.514 14.0067 112.528 12.58L107.848 7.44C106.901 8.01333 106.168 8.52667 105.648 8.98C105.128 9.42 104.754 9.84667 104.528 10.26C104.314 10.6733 104.208 11.1333 104.208 11.64C104.208 12.56 104.568 13.3067 105.288 13.88C106.021 14.44 106.974 14.72 108.148 14.72ZM122.643 0.999999H128.343C129.823 0.999999 131.13 1.3 132.263 1.9C133.397 2.48667 134.277 3.31333 134.903 4.38C135.53 5.43333 135.843 6.64 135.843 8C135.843 9.36 135.53 10.5733 134.903 11.64C134.277 12.6933 133.397 13.52 132.263 14.12C131.13 14.7067 129.823 15 128.343 15H122.643V0.999999ZM128.263 13.72C129.49 13.72 130.563 13.48 131.483 13C132.403 12.5067 133.117 11.8333 133.623 10.98C134.13 10.1133 134.383 9.12 134.383 8C134.383 6.88 134.13 5.89333 133.623 5.04C133.117 4.17333 132.403 3.5 131.483 3.02C130.563 2.52667 129.49 2.28 128.263 2.28H124.123V13.72H128.263ZM147.547 9.82H138.347C138.347 10.7533 138.553 11.5933 138.967 12.34C139.38 13.0733 139.947 13.6467 140.667 14.06C141.4 14.4733 142.22 14.68 143.127 14.68C143.833 14.68 144.493 14.5467 145.107 14.28C145.733 14 146.247 13.6 146.647 13.08L146.927 13.36C146.473 13.9067 145.913 14.3267 145.247 14.62C144.58 14.9133 143.873 15.06 143.127 15.06C142.14 15.06 141.253 14.84 140.467 14.4C139.693 13.9467 139.08 13.32 138.627 12.52C138.187 11.72 137.967 10.82 137.967 9.82C137.967 8.82 138.173 7.92667 138.587 7.14C139 6.34 139.567 5.72 140.287 5.28C141.02 4.82667 141.84 4.6 142.747 4.6C143.64 4.6 144.453 4.82 145.187 5.26C145.92 5.7 146.493 6.30667 146.907 7.08C147.333 7.85333 147.547 8.73333 147.547 9.72V9.82ZM142.747 4.98C141.947 4.98 141.22 5.17333 140.567 5.56C139.913 5.94667 139.387 6.48 138.987 7.16C138.6 7.84 138.387 8.6 138.347 9.44H147.167C147.127 8.6 146.907 7.84 146.507 7.16C146.107 6.48 145.58 5.94667 144.927 5.56C144.273 5.17333 143.547 4.98 142.747 4.98ZM153.305 15.06C152.478 15.06 151.698 14.9267 150.965 14.66C150.232 14.3933 149.665 14.0533 149.265 13.64L149.505 13.32C149.905 13.7067 150.438 14.0333 151.105 14.3C151.785 14.5533 152.518 14.68 153.305 14.68C154.478 14.68 155.345 14.48 155.905 14.08C156.465 13.6667 156.745 13.1 156.745 12.38C156.745 11.86 156.592 11.4533 156.285 11.16C155.992 10.8533 155.625 10.6333 155.185 10.5C154.758 10.3533 154.165 10.2067 153.405 10.06C152.592 9.91333 151.932 9.76 151.425 9.6C150.932 9.42667 150.512 9.16 150.165 8.8C149.832 8.42667 149.665 7.91333 149.665 7.26C149.665 6.51333 149.972 5.88667 150.585 5.38C151.212 4.86 152.125 4.6 153.325 4.6C153.965 4.6 154.598 4.7 155.225 4.9C155.852 5.08667 156.358 5.34 156.745 5.66L156.505 5.98C156.105 5.66 155.625 5.41333 155.065 5.24C154.505 5.06667 153.925 4.98 153.325 4.98C152.245 4.98 151.432 5.19333 150.885 5.62C150.352 6.03333 150.085 6.58 150.085 7.26C150.085 7.80667 150.238 8.24 150.545 8.56C150.852 8.86667 151.232 9.09333 151.685 9.24C152.138 9.38667 152.738 9.52667 153.485 9.66C154.298 9.82 154.945 9.98 155.425 10.14C155.905 10.3 156.312 10.56 156.645 10.92C156.978 11.2667 157.145 11.7533 157.145 12.38C157.145 13.1933 156.818 13.8467 156.165 14.34C155.512 14.82 154.558 15.06 153.305 15.06ZM160.183 4.66H160.583V15H160.183V4.66ZM160.383 1.8C160.236 1.8 160.109 1.74667 160.003 1.64C159.909 1.53333 159.863 1.41333 159.863 1.28C159.863 1.13333 159.909 1.01333 160.003 0.919999C160.109 0.813333 160.236 0.76 160.383 0.76C160.516 0.76 160.636 0.813333 160.743 0.919999C160.849 1.01333 160.903 1.13333 160.903 1.28C160.903 1.41333 160.849 1.53333 160.743 1.64C160.636 1.74667 160.516 1.8 160.383 1.8ZM169.923 4.6C171.216 4.6 172.229 4.97333 172.963 5.72C173.696 6.45333 174.063 7.51333 174.063 8.9V15H173.663V8.9C173.663 7.63333 173.336 6.66667 172.683 6C172.043 5.32 171.129 4.98 169.943 4.98C168.596 4.98 167.529 5.38667 166.743 6.2C165.969 7 165.583 8.06 165.583 9.38V15H165.183V4.66H165.583V7.42C165.903 6.54 166.436 5.85333 167.183 5.36C167.929 4.85333 168.843 4.6 169.923 4.6ZM187.482 4.66V14.08C187.482 15.7333 187.089 16.9533 186.302 17.74C185.516 18.54 184.316 18.94 182.702 18.94C181.756 18.94 180.876 18.7867 180.062 18.48C179.262 18.1733 178.616 17.7533 178.122 17.22L178.402 16.94C178.936 17.46 179.569 17.86 180.302 18.14C181.036 18.42 181.836 18.56 182.702 18.56C184.196 18.56 185.296 18.2 186.002 17.48C186.722 16.7733 187.082 15.66 187.082 14.14V11.54C186.722 12.4867 186.122 13.2467 185.282 13.82C184.456 14.38 183.496 14.66 182.402 14.66C181.442 14.66 180.576 14.4467 179.802 14.02C179.029 13.58 178.422 12.98 177.982 12.22C177.542 11.4467 177.322 10.58 177.322 9.62C177.322 8.66 177.542 7.8 177.982 7.04C178.422 6.26667 179.029 5.66667 179.802 5.24C180.576 4.81333 181.442 4.6 182.402 4.6C183.496 4.6 184.456 4.88 185.282 5.44C186.122 6 186.722 6.74667 187.082 7.68V4.66H187.482ZM182.402 14.28C183.296 14.28 184.096 14.0867 184.802 13.7C185.522 13.3 186.082 12.7467 186.482 12.04C186.882 11.32 187.082 10.5133 187.082 9.62C187.082 8.72667 186.882 7.92667 186.482 7.22C186.082 6.51333 185.522 5.96667 184.802 5.58C184.096 5.18 183.296 4.98 182.402 4.98C181.509 4.98 180.702 5.18 179.982 5.58C179.276 5.96667 178.722 6.51333 178.322 7.22C177.922 7.92667 177.722 8.72667 177.722 9.62C177.722 10.5133 177.922 11.32 178.322 12.04C178.722 12.7467 179.276 13.3 179.982 13.7C180.702 14.0867 181.509 14.28 182.402 14.28ZM200.437 9.82H191.237C191.237 10.7533 191.444 11.5933 191.857 12.34C192.271 13.0733 192.837 13.6467 193.557 14.06C194.291 14.4733 195.111 14.68 196.017 14.68C196.724 14.68 197.384 14.5467 197.997 14.28C198.624 14 199.137 13.6 199.537 13.08L199.817 13.36C199.364 13.9067 198.804 14.3267 198.137 14.62C197.471 14.9133 196.764 15.06 196.017 15.06C195.031 15.06 194.144 14.84 193.357 14.4C192.584 13.9467 191.971 13.32 191.517 12.52C191.077 11.72 190.857 10.82 190.857 9.82C190.857 8.82 191.064 7.92667 191.477 7.14C191.891 6.34 192.457 5.72 193.177 5.28C193.911 4.82667 194.731 4.6 195.637 4.6C196.531 4.6 197.344 4.82 198.077 5.26C198.811 5.7 199.384 6.30667 199.797 7.08C200.224 7.85333 200.437 8.73333 200.437 9.72V9.82ZM195.637 4.98C194.837 4.98 194.111 5.17333 193.457 5.56C192.804 5.94667 192.277 6.48 191.877 7.16C191.491 7.84 191.277 8.6 191.237 9.44H200.057C200.017 8.6 199.797 7.84 199.397 7.16C198.997 6.48 198.471 5.94667 197.817 5.56C197.164 5.17333 196.437 4.98 195.637 4.98ZM204.216 7.34C204.509 6.46 205.002 5.78667 205.696 5.32C206.389 4.84 207.249 4.6 208.276 4.6V5H208.156C206.916 5 205.949 5.4 205.256 6.2C204.562 6.98667 204.216 8.06667 204.216 9.44V15H203.816V4.66H204.216V7.34Z" fill="white"/>
</svg>
