<svg width="20" height="20" viewBox="0 0 20 20" fill="none" xmlns="http://www.w3.org/2000/svg">
<mask id="mask0_271_31" style="mask-type:alpha" maskUnits="userSpaceOnUse" x="0" y="0" width="20" height="20">
<rect width="20" height="20" fill="#D9D9D9"/>
</mask>
<g mask="url(#mask0_271_31)">
<path d="M7.49999 11.6667H15.8333L12.9583 7.91666L11.0417 10.4167L9.74999 8.74999L7.49999 11.6667ZM6.66666 15C6.20832 15 5.8161 14.8369 5.48999 14.5108C5.16332 14.1842 4.99999 13.7917 4.99999 13.3333V3.33332C4.99999 2.87499 5.16332 2.48249 5.48999 2.15582C5.8161 1.82971 6.20832 1.66666 6.66666 1.66666H16.6667C17.125 1.66666 17.5175 1.82971 17.8442 2.15582C18.1703 2.48249 18.3333 2.87499 18.3333 3.33332V13.3333C18.3333 13.7917 18.1703 14.1842 17.8442 14.5108C17.5175 14.8369 17.125 15 16.6667 15H6.66666ZM6.66666 13.3333H16.6667V3.33332H6.66666V13.3333ZM3.33332 18.3333C2.87499 18.3333 2.48277 18.1703 2.15666 17.8442C1.82999 17.5175 1.66666 17.125 1.66666 16.6667V4.99999H3.33332V16.6667H15V18.3333H3.33332Z" fill="white"/>
</g>
</svg>
